<?xml version="1.0" standalone="no"?>
<!DOCTYPE svg PUBLIC "-//W3C//DTD SVG 20010904//EN"
 "http://www.w3.org/TR/2001/REC-SVG-20010904/DTD/svg10.dtd">
<svg version="1.0" xmlns="http://www.w3.org/2000/svg"
 width="80.000000pt" height="80.000000pt" viewBox="0 0 80.000000 80.000000"
 preserveAspectRatio="xMidYMid meet">
<metadata>
Created by potrace 1.14, written by Peter Selinger 2001-2017
</metadata>
<g transform="translate(0.000000,80.000000) scale(0.100000,-0.100000)"
fill="#000000" stroke="none">
<path d="M0 400 l0 -400 400 0 400 0 0 400 0 400 -400 0 -400 0 0 -400z m522
-7 c114 -315 115 -318 92 -321 -14 -2 -52 10 -85 27 -33 16 -80 33 -105 37
-39 5 -44 9 -44 31 0 24 2 25 42 19 23 -4 62 -16 87 -27 24 -10 45 -18 46 -17
5 5 -149 438 -156 438 -3 0 -30 -70 -61 -155 -52 -147 -57 -175 -27 -139 11
14 81 54 94 54 3 0 5 -13 5 -30 0 -24 -6 -32 -32 -43 -38 -16 -96 -77 -139
-147 -23 -38 -37 -50 -55 -50 l-24 0 26 68 c14 37 66 181 117 320 50 138 94
252 97 252 3 0 58 -143 122 -317z"/>
</g>
</svg>
